<svg xmlns="http://www.w3.org/2000/svg" width="812" height="174" fill="none"><g fill="#000" clip-path="url(#a)"><path d="M334.5 54.47h-.53C329.01 46.85 321.03 41 308.26 41c-22.69 0-38.82 19.68-38.82 48.04s15.6 48.04 38.47 48.04c12.76 0 21.81-5.85 27.12-14.54h.35v11.88h23.22V7.66h-24.11v46.8zm-21.28 62.41c-12.41 0-19.32-10.28-19.32-27.83s6.74-28.54 20.03-28.54c15.42 0 21.1 11.7 21.1 29.07s-7.45 27.3-21.81 27.3M405.77 41c-26.59 0-44.85 20.92-44.85 47.87s17.02 48.22 47.16 48.22c23.4 0 37.76-13.65 41.13-29.78h-23.76c-2.66 6.91-8.15 11.17-17.55 11.17-13.65 0-21.45-8.69-23.22-22.69h65.95c0-32.44-15.6-54.78-44.85-54.78zm-20.75 38.12c2.13-11.88 8.33-19.5 21.1-19.5 10.99 0 18.61 7.98 19.32 19.5zM498.15 117.76c-14.71 0-21.63-11.52-21.63-28.72s7.45-28.72 21.98-28.72c8.86 0 15.07 6.03 16.66 14.01h23.58C535.55 54.65 521.01 41 497.43 41c-27.66 0-45.38 20.92-45.38 48.04s17.91 48.04 46.63 48.04c24.29 0 39.36-15.42 40.95-34.75h-23.22c-1.6 10.28-8.51 15.42-18.26 15.42zM725.24 41c-12.41 0-20.92 5.85-26.77 13.83h-.53V43.48h-46.8l-12.76 40.95c-2.84 8.33-5.32 19.86-5.32 19.86h-.35s-3.01-11.52-5.85-19.86l-13.47-40.95h-25.35c-10.64 0-17.55 4.26-23.05 14.54h-.53V43.48h-23.22v90.94h24.11V90.1c0-18.55 14.18-26.1 29.42-25.09.89.06 1.66.66 1.98 1.49l15.76 41.69c5.14 13.83 6.91 19.68 6.91 24.64 0 7.45-3.9 12.41-13.47 12.41h-8.51v18.97h14.18c18.44 0 25.17-7.27 32.09-27.48l31.02-91.17v118.65h24.11v-40.06h.35c5.14 7.8 13.47 12.94 26.24 12.94 23.4 0 39.36-18.61 39.36-48.04s-15.42-48.04-39.53-48.04zm-4.96 76.05c-14.36 0-21.98-10.81-21.98-27.3s6.03-29.25 21.09-29.25 20.92 12.05 20.92 29.25-7.8 27.3-20.03 27.3"/><path d="M804.31 116.7c-5.32 0-9.04-2.31-9.04-9.04V59.44h15.6V43.48h-15.6V15.12h-23.58v28.36H759.1v15.96h12.59v53.36c0 17.2 12.94 21.81 24.64 21.81 9.57 0 15.07-.35 15.07-.35v-17.73s-4.08.18-7.09.18zM55.94 39.97l6.13-6.13L34.04 5.81l-6.13 6.13c-36.86 36.86-36.85 96.85.02 133.72s96.86 36.88 133.72.02l6.13-6.13-28.03-28.03-6.13 6.13c-21.41 21.41-56.24 21.4-77.66-.02s-21.42-56.25-.02-77.66M173.91 133.41l-6.13 6.13 28.03 28.03 6.13-6.13c36.86-36.86 36.85-96.85-.02-133.72S105.06-9.16 68.2 27.7l-6.13 6.13L90.1 61.86l6.13-6.13c21.41-21.41 56.24-21.4 77.66.02s21.42 56.25.02 77.66"/></g><defs><clipPath id="a"><path fill="#fff" d="M0 0h812v174H0z"/></clipPath></defs></svg>